<svg width="166" height="148" viewBox="0 0 166 148" fill="none" xmlns="http://www.w3.org/2000/svg">
<path d="M75.3161 144.37C77.3809 146.435 80.1566 147.586 83.0677 147.586C85.9449 147.586 88.7883 146.401 90.8193 144.37L151.648 83.5416C160.889 74.3006 165.966 62.0131 166 48.9808C166 35.9148 160.923 23.6272 151.681 14.3862C142.44 5.14519 130.187 0.0676995 117.121 0.0676995C104.292 0.0676995 92.2072 4.97594 83.0339 13.9123C73.8267 4.94209 61.7084 0 48.8454 0C35.8132 0 23.5595 5.07749 14.3185 14.2847C5.07749 23.5257 0 35.8132 0 48.8793C0 61.9115 5.11134 74.199 14.3524 83.4401L75.3161 144.37ZM20.2084 20.1746C27.8585 12.5245 38.0473 8.29323 48.8793 8.29323C59.7113 8.29323 69.9339 12.5245 77.6179 20.2084L80.1228 22.7133C80.9013 23.4918 81.9507 23.9319 83.0677 23.9319C84.1509 23.9319 85.2341 23.4918 86.0126 22.7133L88.4498 20.2761C96.1338 12.5922 106.323 8.36093 117.188 8.36093C128.02 8.36093 138.209 12.5922 145.859 20.2423C153.543 27.9262 157.741 38.115 157.741 48.947C157.741 59.779 153.509 69.9678 145.825 77.6517L84.9633 138.514C83.9816 139.496 82.1876 139.496 81.1721 138.514L20.2423 77.584C12.5583 69.9001 8.32708 59.7113 8.32708 48.8793C8.32708 38.0473 12.5583 27.8585 20.2084 20.1746Z" fill="white"/>
</svg>
