<svg width="491" height="436" viewBox="0 0 491 436" fill="none" xmlns="http://www.w3.org/2000/svg">
<path d="M222.5 426.5C228.6 432.6 236.8 436 245.4 436C253.9 436 262.3 432.5 268.3 426.5L448 246.8C475.3 219.5 490.3 183.2 490.4 144.7C490.4 106.1 475.4 69.8 448.1 42.5C420.8 15.2 384.6 0.199999 346 0.199999C308.1 0.199999 272.4 14.7 245.3 41.1C218.1 14.6 182.3 0 144.3 0C105.8 0 69.6 15 42.3 42.2C15 69.5 0 105.8 0 144.4C0 182.9 15.1 219.2 42.4 246.5L222.5 426.5ZM59.7 59.6C82.3 37 112.4 24.5 144.4 24.5C176.4 24.5 206.6 37 229.3 59.7L236.7 67.1C239 69.4 242.1 70.7 245.4 70.7C248.6 70.7 251.8 69.4 254.1 67.1L261.3 59.9C284 37.2 314.1 24.7 346.2 24.7C378.2 24.7 408.3 37.2 430.9 59.8C453.6 82.5 466 112.6 466 144.6C466 176.6 453.5 206.7 430.8 229.4L251 409.2C248.1 412.1 242.8 412.1 239.8 409.2L59.8 229.2C37.1 206.5 24.6 176.4 24.6 144.4C24.6 112.4 37.1 82.3 59.7 59.6Z" fill="white"/>
</svg>
